<?xml version="1.0" encoding="UTF-8"?>
<!DOCTYPE svg PUBLIC "-//W3C//DTD SVG 1.1//EN" "http://www.w3.org/Graphics/SVG/1.1/DTD/svg11.dtd">
<svg version="1.1" xmlns="http://www.w3.org/2000/svg" xmlns:xlink="http://www.w3.org/1999/xlink" x="0" y="0" width="928.346" height="256.535" viewBox="0, 0, 928.346, 256.535">
  <g id="Layer_1">
    <path d="M329.292,154.054 L313.208,154.054 L313.208,76.956 L357.4,76.956 L357.4,90.351 L329.292,90.351 L329.292,110.232 L355.448,110.232 L355.448,123.574 L329.292,123.574 z" fill="#000000"/>
    <path d="M442.46,115.4 Q442.46,134.542 432.968,144.825 Q423.476,155.109 405.757,155.109 Q388.038,155.109 378.546,144.825 Q369.054,134.542 369.054,115.294 Q369.054,96.046 378.572,85.895 Q388.091,75.743 405.862,75.743 Q423.634,75.743 433.047,85.974 Q442.46,96.204 442.46,115.4 z M386.193,115.4 Q386.193,128.32 391.097,134.859 Q396.001,141.398 405.757,141.398 Q425.321,141.398 425.321,115.4 Q425.321,89.349 405.862,89.349 Q396.107,89.349 391.15,95.914 Q386.193,102.48 386.193,115.4 z" fill="#000000"/>
    <path d="M503.948,132.644 Q503.948,143.085 496.434,149.097 Q488.919,155.109 475.525,155.109 Q463.185,155.109 453.693,150.468 L453.693,135.281 Q461.497,138.761 466.902,140.185 Q472.308,141.609 476.79,141.609 Q482.169,141.609 485.043,139.552 Q487.917,137.495 487.917,133.435 Q487.917,131.167 486.651,129.401 Q485.386,127.634 482.934,125.999 Q480.482,124.365 472.941,120.779 Q465.874,117.456 462.341,114.398 Q458.808,111.339 456.698,107.279 Q454.589,103.218 454.589,97.786 Q454.589,87.556 461.524,81.702 Q468.458,75.849 480.693,75.849 Q486.704,75.849 492.162,77.273 Q497.62,78.697 503.579,81.281 L498.306,93.99 Q492.136,91.458 488.102,90.456 Q484.068,89.454 480.165,89.454 Q475.525,89.454 473.046,91.617 Q470.568,93.779 470.568,97.259 Q470.568,99.421 471.569,101.03 Q472.571,102.638 474.76,104.141 Q476.948,105.644 485.122,109.546 Q495.933,114.714 499.941,119.908 Q503.948,125.103 503.948,132.644 z" fill="#000000"/>
    <path d="M563.433,132.644 Q563.433,143.085 555.918,149.097 Q548.403,155.109 535.009,155.109 Q522.669,155.109 513.177,150.468 L513.177,135.281 Q520.982,138.761 526.387,140.185 Q531.792,141.609 536.275,141.609 Q541.653,141.609 544.527,139.552 Q547.401,137.495 547.401,133.435 Q547.401,131.167 546.136,129.401 Q544.87,127.634 542.418,125.999 Q539.966,124.365 532.425,120.779 Q525.359,117.456 521.825,114.398 Q518.292,111.339 516.183,107.279 Q514.073,103.218 514.073,97.786 Q514.073,87.556 521.008,81.702 Q527.943,75.849 540.177,75.849 Q546.189,75.849 551.647,77.273 Q557.105,78.697 563.064,81.281 L557.79,93.99 Q551.62,91.458 547.586,90.456 Q543.552,89.454 539.65,89.454 Q535.009,89.454 532.53,91.617 Q530.052,93.779 530.052,97.259 Q530.052,99.421 531.054,101.03 Q532.056,102.638 534.244,104.141 Q536.433,105.644 544.607,109.546 Q555.417,114.714 559.425,119.908 Q563.433,125.103 563.433,132.644 z" fill="#000000"/>
    <path d="M637.411,134.428 L625.291,134.428 L625.291,154.054 L611.202,154.054 L611.202,134.428 L570.104,134.428 L570.104,123.292 L611.202,63.861 L625.291,63.861 L625.291,122.431 L637.411,122.431 z M611.202,122.431 L611.202,99.852 Q611.202,87.793 611.817,80.103 L611.325,80.103 Q609.602,84.163 605.911,89.947 L583.578,122.431 z" fill="#318EC9"/>
    <path d="M678.597,110.759 L709.183,110.759 L709.183,150.732 Q701.747,153.158 695.182,154.133 Q688.616,155.109 681.761,155.109 Q664.306,155.109 655.104,144.852 Q645.901,134.595 645.901,115.4 Q645.901,96.732 656.58,86.29 Q667.259,75.849 686.19,75.849 Q698.056,75.849 709.077,80.595 L703.646,93.673 Q695.208,89.454 686.085,89.454 Q675.485,89.454 669.105,96.574 Q662.724,103.693 662.724,115.716 Q662.724,128.267 667.865,134.885 Q673.007,141.503 682.815,141.503 Q687.931,141.503 693.204,140.449 L693.204,124.365 L678.597,124.365 z" fill="#000000"/>
    <path d="M818.343,76.956 L818.343,126.843 Q818.343,135.386 814.52,141.82 Q810.696,148.253 803.472,151.681 Q796.247,155.109 786.386,155.109 Q771.515,155.109 763.288,147.489 Q755.062,139.868 755.062,126.632 L755.062,76.956 L771.357,76.956 L771.357,124.154 Q771.357,133.066 774.942,137.232 Q778.528,141.398 786.808,141.398 Q794.823,141.398 798.436,137.205 Q802.048,133.013 802.048,124.048 L802.048,76.956 z" fill="#000000"/>
    <path d="M899.237,154.054 L880.675,154.054 L860.478,121.57 L853.569,126.527 L853.569,154.054 L837.222,154.054 L837.222,76.956 L853.569,76.956 L853.569,112.236 L860.003,103.165 L880.886,76.956 L899.026,76.956 L872.132,111.075 z" fill="#000000"/>
    <path d="M340.355,219.786 Q340.355,225.308 336.362,228.452 Q332.368,231.595 325.345,231.595 Q318.322,231.595 313.847,229.415 L313.847,223.014 Q316.679,224.345 319.865,225.11 Q323.051,225.875 325.798,225.875 Q329.82,225.875 331.731,224.345 Q333.643,222.816 333.643,220.239 Q333.643,217.917 331.887,216.302 Q330.131,214.688 324.637,212.479 Q318.973,210.185 316.651,207.24 Q314.328,204.295 314.328,200.16 Q314.328,194.977 318.01,192.004 Q321.692,189.03 327.894,189.03 Q333.841,189.03 339.732,191.635 L337.579,197.158 Q332.057,194.836 327.724,194.836 Q324.439,194.836 322.74,196.266 Q321.04,197.696 321.04,200.047 Q321.04,201.661 321.72,202.808 Q322.4,203.955 323.957,204.974 Q325.515,205.994 329.565,207.665 Q334.124,209.562 336.248,211.205 Q338.372,212.847 339.364,214.915 Q340.355,216.982 340.355,219.786 z" fill="#318EC9"/>
    <path d="M379.444,215.311 Q379.444,222.986 375.507,227.291 Q371.571,231.595 364.547,231.595 Q360.158,231.595 356.787,229.613 Q353.417,227.631 351.605,223.921 Q349.792,220.211 349.792,215.311 Q349.792,207.693 353.701,203.417 Q357.609,199.14 364.717,199.14 Q371.514,199.14 375.479,203.516 Q379.444,207.891 379.444,215.311 z M356.646,215.311 Q356.646,226.158 364.66,226.158 Q372.59,226.158 372.59,215.311 Q372.59,204.578 364.604,204.578 Q360.412,204.578 358.529,207.353 Q356.646,210.129 356.646,215.311 z" fill="#318EC9"/>
    <path d="M413.18,231.029 L412.245,226.923 L411.906,226.923 Q410.518,229.103 407.955,230.349 Q405.392,231.595 402.107,231.595 Q396.414,231.595 393.611,228.763 Q390.807,225.931 390.807,220.182 L390.807,199.707 L397.519,199.707 L397.519,219.021 Q397.519,222.618 398.992,224.416 Q400.464,226.215 403.608,226.215 Q407.799,226.215 409.767,223.708 Q411.736,221.202 411.736,215.311 L411.736,199.707 L418.419,199.707 L418.419,231.029 z" fill="#318EC9"/>
    <path d="M443.575,226.215 Q446.01,226.215 448.446,225.45 L448.446,230.463 Q447.341,230.944 445.599,231.27 Q443.858,231.595 441.989,231.595 Q432.53,231.595 432.53,221.627 L432.53,204.748 L428.253,204.748 L428.253,201.802 L432.841,199.367 L435.107,192.74 L439.213,192.74 L439.213,199.707 L448.134,199.707 L448.134,204.748 L439.213,204.748 L439.213,221.513 Q439.213,223.921 440.417,225.068 Q441.62,226.215 443.575,226.215 z" fill="#318EC9"/>
    <path d="M486.26,231.029 L479.577,231.029 L479.577,211.771 Q479.577,208.146 478.118,206.362 Q476.66,204.578 473.488,204.578 Q469.296,204.578 467.328,207.084 Q465.36,209.591 465.36,215.481 L465.36,231.029 L458.704,231.029 L458.704,186.963 L465.36,186.963 L465.36,198.149 Q465.36,200.84 465.02,203.898 L465.445,203.898 Q466.804,201.633 469.225,200.386 Q471.647,199.14 474.875,199.14 Q486.26,199.14 486.26,210.61 z" fill="#318EC9"/>
    <path d="M519.119,231.029 L517.787,226.668 L517.561,226.668 Q515.295,229.528 513.001,230.562 Q510.707,231.595 507.111,231.595 Q502.494,231.595 499.903,229.103 Q497.312,226.611 497.312,222.051 Q497.312,217.209 500.909,214.745 Q504.505,212.281 511.868,212.054 L517.278,211.884 L517.278,210.214 Q517.278,207.212 515.876,205.725 Q514.474,204.238 511.529,204.238 Q509.121,204.238 506.912,204.946 Q504.703,205.654 502.664,206.617 L500.512,201.859 Q503.061,200.528 506.091,199.834 Q509.121,199.14 511.812,199.14 Q517.787,199.14 520.832,201.746 Q523.876,204.351 523.876,209.93 L523.876,231.029 z M509.206,226.498 Q512.831,226.498 515.026,224.473 Q517.221,222.448 517.221,218.795 L517.221,216.076 L513.2,216.246 Q508.498,216.416 506.36,217.818 Q504.222,219.219 504.222,222.108 Q504.222,224.204 505.468,225.351 Q506.714,226.498 509.206,226.498 z" fill="#318EC9"/>
    <path d="M563.56,231.029 L556.876,231.029 L556.876,211.715 Q556.876,208.118 555.517,206.348 Q554.158,204.578 551.269,204.578 Q547.417,204.578 545.619,207.084 Q543.821,209.591 543.821,215.424 L543.821,231.029 L537.165,231.029 L537.165,199.707 L542.376,199.707 L543.311,203.813 L543.651,203.813 Q544.953,201.576 547.432,200.358 Q549.91,199.14 552.883,199.14 Q560.105,199.14 562.455,204.068 L562.909,204.068 Q564.296,201.746 566.817,200.443 Q569.337,199.14 572.594,199.14 Q578.202,199.14 580.765,201.972 Q583.328,204.804 583.328,210.61 L583.328,231.029 L576.672,231.029 L576.672,211.715 Q576.672,208.118 575.299,206.348 Q573.925,204.578 571.036,204.578 Q567.157,204.578 565.358,206.999 Q563.56,209.421 563.56,214.433 z" fill="#318EC9"/>
    <path d="M612.504,231.595 Q606.557,231.595 603.272,227.319 L602.875,227.319 Q603.272,231.284 603.272,232.133 L603.272,244.963 L596.617,244.963 L596.617,199.707 L601.997,199.707 Q602.224,200.585 602.932,203.898 L603.272,203.898 Q606.387,199.14 612.618,199.14 Q618.48,199.14 621.751,203.388 Q625.022,207.636 625.022,215.311 Q625.022,222.986 621.694,227.291 Q618.367,231.595 612.504,231.595 z M610.89,204.578 Q606.925,204.578 605.099,206.9 Q603.272,209.222 603.272,214.32 L603.272,215.311 Q603.272,221.032 605.084,223.595 Q606.897,226.158 611.003,226.158 Q614.458,226.158 616.328,223.326 Q618.197,220.494 618.197,215.255 Q618.197,209.987 616.342,207.282 Q614.487,204.578 610.89,204.578 z" fill="#318EC9"/>
    <path d="M648.421,226.215 Q650.857,226.215 653.292,225.45 L653.292,230.463 Q652.188,230.944 650.446,231.27 Q648.704,231.595 646.835,231.595 Q637.376,231.595 637.376,221.627 L637.376,204.748 L633.1,204.748 L633.1,201.802 L637.688,199.367 L639.953,192.74 L644.06,192.74 L644.06,199.707 L652.981,199.707 L652.981,204.748 L644.06,204.748 L644.06,221.513 Q644.06,223.921 645.264,225.068 Q646.467,226.215 648.421,226.215 z" fill="#318EC9"/>
    <path d="M691.333,215.311 Q691.333,222.986 687.397,227.291 Q683.46,231.595 676.437,231.595 Q672.047,231.595 668.677,229.613 Q665.307,227.631 663.495,223.921 Q661.682,220.211 661.682,215.311 Q661.682,207.693 665.59,203.417 Q669.498,199.14 676.607,199.14 Q683.404,199.14 687.369,203.516 Q691.333,207.891 691.333,215.311 z M668.536,215.311 Q668.536,226.158 676.55,226.158 Q684.48,226.158 684.48,215.311 Q684.48,204.578 676.494,204.578 Q672.302,204.578 670.419,207.353 Q668.536,210.129 668.536,215.311 z" fill="#318EC9"/>
    <path d="M730.536,231.029 L723.852,231.029 L723.852,211.771 Q723.852,208.146 722.393,206.362 Q720.935,204.578 717.763,204.578 Q713.543,204.578 711.589,207.07 Q709.635,209.562 709.635,215.424 L709.635,231.029 L702.98,231.029 L702.98,199.707 L708.191,199.707 L709.125,203.813 L709.465,203.813 Q710.881,201.576 713.487,200.358 Q716.092,199.14 719.264,199.14 Q730.536,199.14 730.536,210.61 z" fill="#318EC9"/>
    <path d="M788.719,231.029 L760.654,231.029 L760.654,225.988 L771.33,215.255 Q776.06,210.412 777.603,208.387 Q779.147,206.362 779.855,204.578 Q780.563,202.794 780.563,200.755 Q780.563,197.951 778.878,196.337 Q777.193,194.722 774.219,194.722 Q771.84,194.722 769.617,195.6 Q767.394,196.478 764.477,198.772 L760.88,194.383 Q764.335,191.466 767.592,190.248 Q770.849,189.03 774.531,189.03 Q780.308,189.03 783.791,192.046 Q787.275,195.062 787.275,200.16 Q787.275,202.964 786.269,205.484 Q785.264,208.005 783.182,210.681 Q781.101,213.357 776.258,217.917 L769.065,224.883 L769.065,225.167 L788.719,225.167 z" fill="#318EC9"/>
    <path d="M825.826,210.327 Q825.826,221.117 822.356,226.356 Q818.887,231.595 811.75,231.595 Q804.84,231.595 801.272,226.186 Q797.703,220.777 797.703,210.327 Q797.703,199.367 801.173,194.17 Q804.642,188.973 811.75,188.973 Q818.689,188.973 822.257,194.411 Q825.826,199.848 825.826,210.327 z M804.444,210.327 Q804.444,218.795 806.185,222.42 Q807.927,226.045 811.75,226.045 Q815.574,226.045 817.344,222.363 Q819.114,218.681 819.114,210.327 Q819.114,202.001 817.344,198.277 Q815.574,194.552 811.75,194.552 Q807.927,194.552 806.185,198.206 Q804.444,201.859 804.444,210.327 z" fill="#318EC9"/>
    <path d="M854.408,231.029 L847.752,231.029 L847.752,204.295 Q847.752,199.508 847.979,196.705 Q847.328,197.384 846.379,198.206 Q845.43,199.027 840.021,203.417 L836.679,199.197 L848.857,189.625 L854.408,189.625 z" fill="#318EC9"/>
    <path d="M872.086,213.385 Q872.086,189.087 891.882,189.087 Q894.997,189.087 897.15,189.568 L897.15,195.119 Q894.997,194.496 892.165,194.496 Q885.51,194.496 882.168,198.064 Q878.827,201.633 878.543,209.506 L878.883,209.506 Q880.214,207.212 882.621,205.951 Q885.029,204.691 888.286,204.691 Q893.921,204.691 897.065,208.146 Q900.208,211.601 900.208,217.52 Q900.208,224.034 896.569,227.815 Q892.93,231.595 886.643,231.595 Q882.197,231.595 878.911,229.457 Q875.626,227.319 873.856,223.227 Q872.086,219.134 872.086,213.385 z M886.53,226.101 Q889.956,226.101 891.811,223.892 Q893.666,221.683 893.666,217.577 Q893.666,214.008 891.925,211.969 Q890.183,209.93 886.7,209.93 Q884.547,209.93 882.735,210.851 Q880.922,211.771 879.874,213.371 Q878.827,214.971 878.827,216.642 Q878.827,220.635 880.993,223.368 Q883.16,226.101 886.53,226.101 z" fill="#318EC9"/>
    <g>
      <path d="M141.776,28.124 C142.43,26.193 143.173,25.967 143.835,25.305 C142.587,25.397 139.42,25.314 135.157,22.971 C135.157,22.971 134.899,22.838 134.775,22.853 C134.775,22.853 134.53,22.842 134.732,23.176 C134.796,23.274 134.898,23.4 134.989,23.489 C134.996,23.495 135.005,23.505 135.012,23.511 L142.089,30.837 L141.776,28.124 z" fill="#318EC9"/>
      <path d="M141.776,28.124 C142.43,26.193 143.173,25.967 143.835,25.305 C142.587,25.397 139.42,25.314 135.157,22.971 C135.157,22.971 134.899,22.838 134.775,22.853 C134.775,22.853 134.53,22.842 134.732,23.176 C134.796,23.274 134.898,23.4 134.989,23.489 C134.996,23.495 135.005,23.505 135.012,23.511 L142.089,30.837 L141.776,28.124 z" fill-opacity="0" stroke="#000000" stroke-width="1"/>
    </g>
    <path d="M184.182,205.325 L187.077,205.388 L188.787,74.582 L182.726,74.519 L181.218,205.325" fill="#000000" id="path258"/>
    <path d="M184.682,205.825 L187.577,205.888 L189.287,75.082 L183.226,75.019 L181.718,205.825 L184.682,205.825 z" fill-opacity="0" stroke="#000000" stroke-width="0.216" id="path260"/>
    <path d="M184.255,203.469 L186.015,203.532 L187.447,76.636 L183.861,76.573 L182.428,203.469" fill="#FFFFFF" id="path262"/>
    <path d="M130.586,206.142 L133.656,206.205 L135.148,67.833 L129.143,67.968 L127.652,206.139" fill="#000000" id="path264"/>
    <path d="M130.718,204.839 L132.478,204.839 L133.844,69.401 L130.258,69.338 L128.892,204.775" fill="#FFFFFF" id="path268"/>
    <path d="M76.986,93.461 L81.224,93.461 L81.224,90.659 L72.815,90.659 L72.815,93.461" fill="#FFFFFF" id="path274"/>
    <path d="M78.551,201.249 L81.621,201.249 L84.807,63.006 L79.004,62.877 L75.613,201.12" fill="#000000" id="path276"/>
    <path d="M78.68,199.879 L80.44,199.942 L83.504,64.504 L79.984,64.442 L76.854,199.879" fill="#FFFFFF" id="path280"/>
    <path d="M85.918,65.868 L87.027,65.868 L87.027,48.655 L84.81,48.655 L84.81,65.868" fill="#FFFFFF" id="path292"/>
    <path d="M136.845,53.161 L138.929,53.161 L138.929,34.446 L134.757,34.446 L134.757,53.161" fill="#000000" id="path294"/>
    <path d="M137.345,53.661 L139.429,53.661 L139.429,34.946 L135.257,34.946 L135.257,53.661 L137.345,53.661 z" fill-opacity="0" stroke="#000000" stroke-width="0.216" id="path296"/>
    <path d="M136.845,55.778 L138.016,55.778 L138.016,34.698 L135.737,34.698 L135.737,55.778" fill="#FFFFFF" id="path298"/>
    <path d="M188.169,71.029 L189.34,71.029 L189.34,53.75 L187.06,53.75 L187.06,71.029" fill="#FFFFFF" id="path304"/>
    <path d="M140.497,42.988 L142.27,42.988 L142.191,19.712 L138.721,19.841 L138.8,43.117" fill="#000000" id="path306"/>
    <path d="M140.63,42.532 L141.344,42.532 L141.215,20.231 L139.651,20.294 L139.779,42.528" fill="#FFFFFF" id="path310"/>
    <path d="M103.068,55.05 C77.572,48.595 62.053,43.316 52.142,40.966 C57.226,52.311 58.675,59.215 57.438,66.387 C56.492,71.876 53.972,77.525 50.309,85.449 C49.191,87.874 48.711,90.044 48.685,90.154 C48.658,90.259 56.634,82.194 55.324,83.831 C55.324,83.831 58.989,80.423 67.402,81.336 C72.815,81.923 91.85,84.526 91.459,84.526 C91.069,84.526 101.11,84.979 102.023,94.566 C102.023,94.566 117.281,80.807 107.693,67.048 C101.5,58.246 102.936,54.921 102.936,54.921" fill="#000000" id="path318"/>
    <path d="M98.434,56.661 C89.829,53.664 65.448,46.247 55.209,43.312 C64.858,62.418 60.386,66.361 50.954,86.461 C50.954,86.461 56.29,80.838 56.29,80.838 C56.29,80.838 58.142,78.006 66.552,78.919 C71.899,79.438 89.373,81.264 91.199,81.525 C94.59,82.111 99.607,83.219 103.197,90.98 C103.002,87.199 103.588,87.199 103.651,86.091 C104.431,79.57 113.234,81.657 105.473,68.878 C99.866,59.751 98.427,56.667 98.427,56.667" fill="#FFFFFF" id="path322"/>
    <path d="M111.845,90.296 C60.902,118.772 74.674,112.109 40.712,130.579 C63.932,132.577 54.15,163.79 52.417,167.942 C55.49,166.189 100.487,142.416 117.314,154.901 C117.928,152.788 135.942,121.7 111.266,89.415" fill="#000000" id="path324"/>
    <path d="M111.474,94.421 C108.59,93.719 77.857,111.974 43.825,130.44 C62.652,131.364 57.574,159.341 56.611,162.864 C56.611,162.864 109.271,141.294 116.764,149.049 C117.383,146.865 129.137,126.775 111.471,94.56" fill="#FFFFFF" id="path328"/>
    <path d="M156.932,89.677 C136.001,85.244 99.747,77.549 99.747,77.549 C99.747,77.549 98.314,78.33 98.248,78.525 C118.332,101.15 94.272,124.952 93.686,125.799 C94.272,125.147 100.664,126.579 107.25,143.468 C121.723,139.753 99.426,126.513 102.36,125.799 C117.161,122.084 132.419,117.912 160.197,130.166 C168.935,105.648 156.806,89.802 156.806,89.802" fill="#000000" id="path332"/>
    <path d="M164.495,51.139 C137.761,43.706 103.826,36.461 102,35.938 C119.454,49.433 107.958,60.856 105.742,63.919 C105.742,63.856 105.804,66.198 105.742,67.178 C104.699,69.589 98.44,78.393 98.113,78.587 C97.788,78.783 102.218,77.741 100.591,78.717 C98.963,79.693 108.087,75.653 108.087,75.653 C108.087,75.653 147.927,77.608 156.145,88.628 C156.145,88.628 168.468,69.655 168.468,69.655 C168.468,69.655 172.183,62.94 165.6,54.398 C163.84,52.182 164.362,51.268 164.362,51.268" fill="#000000" id="path336"/>
    <path d="M160.009,51.891 C133.341,44.702 109.615,38.843 106.096,38.023 C119.851,48.324 112.788,64.442 99.945,78.266 C99.621,78.525 107.769,73.443 110.965,73.639 C135.677,75.399 148.265,78.332 157.064,83.289 C157.064,83.289 174.41,72.792 161.954,55.642 C160.327,53.363 159.81,52.155 159.81,52.155" fill="#FFFFFF" id="path340"/>
    <path d="M153.347,92.025 C133.004,85.376 119.894,84.92 101.768,79.051 C119.894,100.11 99.161,123.913 99.552,123.652 C114.286,120.003 131.893,113.807 157.717,123.652 C168.409,106.764 157.064,98.744 152.827,93.137" fill="#FFFFFF" id="path342"/>
    <path d="M210.73,103.697 C177.801,97.828 157.194,92.155 152.5,93.005 C156.476,98.612 168.603,104.676 153.803,131.671 C153.803,131.671 159.083,132.518 159.083,132.518 C159.083,132.518 157.061,137.669 156.605,137.669 C156.085,137.669 160.515,139.819 160.971,137.993 C161.686,134.863 197.16,128.737 217.376,142.555 C217.376,142.555 231.853,120.777 214.508,110.67 C214.638,110.67 210.727,103.694 210.727,103.694" fill="#000000" id="path344"/>
    <path d="M205.318,65.484 C195.211,63.4 161.696,56.224 155.957,54.269 C169.193,70.569 162.54,75.981 162.021,77.027 C161.501,78.002 153.022,89.479 153.022,89.283 C153.022,89.088 155.106,93.455 155.106,93.455 C155.106,93.455 157.452,94.04 157.452,94.04 C157.452,94.04 161.299,92.217 161.299,92.217 C161.299,92.217 165.275,90.851 166.645,90.719 C178.773,90.133 193.574,92.283 204.921,96.978 C210.79,99.456 208.57,107.998 208.57,107.998 C208.57,107.998 228.912,93.329 210.33,72.785 C209.288,71.614 205.245,65.613 205.245,65.613" fill="#000000" id="path348"/>
    <path d="M203.158,67.475 C179.815,61.15 160.714,57.336 160.714,57.336 C160.714,57.336 169.646,66.595 164.561,78.591 C162.021,84.589 156.347,93.392 156.347,93.392 C156.347,93.392 163.519,89.482 167.952,88.959 C181.121,87.332 200.164,90.782 204.402,92.35 C212.226,95.218 209.487,105.847 209.487,105.847 C209.487,105.847 223.046,84.331 207.402,74.287 C206.622,73.702 203.363,68.485 203.363,68.485" fill="#FFFFFF" id="path352"/>
    <path d="M292.079,143.335 C270.301,158.659 194.484,211.084 194.484,211.084 C194.484,211.084 212.626,215.891 212.626,215.891 C212.626,215.891 226.642,209.959 226.642,210.155 C226.642,210.284 227.489,203.125 227.489,203.257 C227.489,203.32 231.515,199.704 232.756,198.341 C232.756,198.341 232.253,196.565 232.19,195.817 C232.128,195.88 236.968,192.519 238.181,191.344 C238.181,191.344 237.834,188.483 237.834,188.483 C237.834,188.483 294.878,146.995 294.878,146.995 C294.878,146.995 292.207,143.191 292.207,143.335" fill="#000000" id="path396"/>
    <path d="M291.593,145.403 C269.943,160.66 195.867,211.719 195.867,211.719 C195.867,211.719 212.623,215.957 212.623,215.957 C212.623,215.957 224.879,209.893 224.879,210.089 C224.879,210.284 226.378,201.875 226.378,202.003 C226.378,202.132 231.333,197.637 231.333,197.637 C231.333,197.637 230.748,195.029 230.682,195.159 C230.619,195.221 236.746,190.464 236.746,190.464 C236.746,190.464 236.746,187.662 236.746,187.662 C236.746,187.662 292.889,146.78 292.889,146.78 C292.889,146.78 291.718,145.414 291.718,145.414" fill="#FFFFFF" id="path400"/>
    <path d="M230.236,205.891 C222.15,208.564 204.15,213.218 195.218,195.487 C138.856,203.489 73.178,190.338 47.547,180.722 C53.561,197.637 52.78,200.227 54.834,211.144 C57.507,213.033 58.213,215.179 59.449,217.787 C59.105,217.317 54.402,216.85 48.906,215.368 C43.766,213.982 38.886,215.08 34.4,216.02 C31.198,216.692 17.538,216.407 17.396,217.72 C17.257,219.034 23.208,221.165 28.025,223.325 C29.123,223.814 34.989,225.855 36.805,226.623 C44.255,229.766 45.833,230.616 53.763,232.336 C53.763,232.336 49.916,233.875 46.445,234.212 C40.53,234.784 33.576,233.63 31.975,234.602 C30.377,235.574 46.74,244.775 59.846,241.004 C101.582,230.586 93.974,252.037 130.305,243.379 C131.231,243.161 132.111,243.054 132.898,242.985 C140.501,242.337 141.261,243.783 148.516,245.199 C162.07,247.845 176.01,243.045 190.388,238.436 C190.835,238.294 191.251,238.089 191.626,238.076 C199.116,237.765 206.598,237.927 214.336,237.341 C214.786,237.308 215.365,237.507 215.805,237.596 C221.502,238.75 228.638,239.631 233.262,242.066 C252.784,251.778 260.304,246.372 272.352,242.535 C278.816,240.117 285.565,236.812 292.86,236.183 C294.503,236.045 303.79,236.161 303.498,235.208 C303.078,233.832 297.084,230.222 286.065,230.94 C270.807,231.982 258.659,229.974 258.659,229.974 C258.659,229.974 268.64,228.33 274.764,226.725 C277.837,225.922 293.432,225.379 293.607,224.241 C293.779,223.103 287.421,223.265 273.86,218.114 C264.667,214.66 253.052,217.79 250.964,218.504 C231.404,225.545 224.74,221.015 224.674,221.601 C224.545,222.253 231.072,205.626 231.072,205.626" fill="#000000" id="path402"/>
    <path d="M194.368,197.309 C132.223,204.154 79.666,192.615 49.8,183.355 C50.253,184.788 52.377,190.458 52.377,190.458 C52.377,190.458 126.133,211.934 197.346,201.143 C196.687,200.353 195.089,198.43 194.364,197.309" fill="#FFFFFF" id="path406"/>
    <path d="M203.32,206.356 C202.632,206.109 199.608,204.26 198.126,202.125 C136.987,211.363 79.875,198.814 52.278,191.493 C52.731,192.926 54.199,199.264 54.265,200.178 C74.34,204.978 142.691,220.073 203.323,206.356" fill="#FFFFFF" id="path408"/>
    <path d="M227.387,207.872 C219.858,210.568 208.666,209.93 204.465,207.309 C145.836,219.771 87.966,209.212 54.447,201.063 C54.901,202.43 55.959,209.569 56.023,210.025 C88.403,219.408 192.178,225.561 227.522,207.809" fill="#FFFFFF" id="path412"/>
    <path d="M228.016,208.656 C193.653,225.806 95.476,221.882 57.392,211.253 C57.002,210.863 60.118,215.849 61.418,217.545 C61.418,217.545 69.752,217.647 77.77,221.105 C77.77,221.105 99.287,232.187 117.026,226.06 C117.026,226.06 133.587,220.91 146.693,225.607 C146.693,225.607 158.298,230.43 175.71,224.632 C177.013,224.178 189.009,219.481 201.596,224.889 C202.767,225.342 212.288,229.845 218.941,229.323 C218.941,229.323 226.309,216.804 228.002,208.652" fill="#FFFFFF" id="path416"/>
    <path d="M290.898,224.108 C280.923,222.544 278.439,221.458 275.899,220.351 C271.204,218.2 259.255,216.093 246.605,220.979 C237.086,224.628 229.375,224.727 224.486,222.312 C224.486,222.312 220.903,229.332 220.413,229.915 C220.606,230.229 223.973,230.394 228.102,229.878 C232.895,229.276 238.208,228.707 243.054,229.151 C257.019,230.421 270.972,226.09 272.977,225.783 C275.243,225.435 282.006,224.337 290.898,224.108" fill="#318EC9" id="path420"/>
    <path d="M270.009,242.042 C260.75,242.105 259.027,240.683 257.591,240.027 C246.188,232.296 236.376,233.802 233.954,233.762 C231.532,233.726 219.785,235.714 217.684,236.339 C222.312,238.205 228.929,237.705 236.799,242.214 C244.58,246.674 254.197,246.69 258.894,245.582 C263.261,244.607 269.947,241.907 269.947,241.907" fill="#318EC9" id="path422"/>
    <path d="M59.605,218.326 C46.631,218.001 49.829,214.257 37.006,216.923 C32.719,217.817 19.537,218.223 19.275,217.962 C19.249,218.061 31.006,224.37 37.801,224.377 C40.633,224.38 44.139,223.289 46.548,222.008 C49.201,220.595 55.936,218.862 55.936,218.862" fill="#318EC9" id="path424"/>
    <path d="M160.062,132.782 C128.178,127.503 101.374,123.655 101.374,123.655 C101.374,123.655 104.961,138.717 104.633,143.478 C108.739,159.582 90.491,201.891 90.944,202.503 C91.238,202.899 102.337,188.063 102.337,188.063 C113.529,172.987 137.98,176.64 154.061,179.345 C154.061,179.345 160.582,180.513 161.038,186.514 C161.429,191.728 157.554,206.744 157.776,206.896 C157.998,207.045 165.282,194.94 165.282,194.94 C165.282,194.94 168.534,188.8 174.988,186.518 C177.013,185.767 193.934,177.631 209.35,186.713 C212.48,188.212 211.501,192.383 211.501,192.383 C211.501,192.383 209.023,201.838 209.023,201.838 C208.848,202.195 221.059,186.65 222.203,183.775 C223.344,180.9 233.623,163.536 222.326,144.6 C221.217,143.885 158.748,136.763 158.748,136.763 C158.748,136.763 159.857,132.915 159.857,132.915" fill="#000000" id="path426"/>
    <path d="M155.301,134.41 C125.7,128.803 104.441,125.739 99.353,124.436 C112.46,137.735 111.289,148.546 106.592,165.061 C104.187,173.52 94.163,196.787 94.163,197.047 C94.163,197.372 97.186,190.265 104.944,182.048 C116.894,169.394 159.996,176.279 159.996,176.537 C159.996,176.795 163.645,166.364 163.645,166.364 C163.645,166.364 168.402,149.475 159.211,143.478 C159.211,143.478 152.757,138.198 152.757,138.327 C152.757,138.456 155.103,134.612 155.103,134.612" fill="#FFFFFF" id="path430"/>
    <path d="M221.945,148.496 C207.991,143.283 156.542,138.323 156.413,138.323 C156.284,138.323 168.147,145.039 168.018,162.841 C168.018,170.926 159.992,201.997 159.874,202.116 C159.874,202.116 162.295,196.869 164.571,192.641 C166.222,189.571 170.953,185.73 170.953,185.73 C170.953,185.73 191.883,173.278 211.12,181.754 C216.533,184.099 213.857,188.665 213.857,188.469 C213.857,188.34 210.727,197.792 210.27,198.51 C235.829,165.974 222.137,148.692 222.137,148.692" fill="#FFFFFF" id="path432"/>
    <path d="M208.904,107.022 C173.563,98.351 155.239,94.308 155.239,94.308 C155.239,94.308 168.537,104.61 163.714,120.976 C163.652,121.171 157.908,132.048 156.214,136.485 C163.387,132.051 197.951,124.628 218.425,138.84 C218.296,138.84 223.837,123.582 216.47,114.974 C214.254,112.368 208.973,107.085 208.907,107.022" fill="#FFFFFF" id="path434"/>
    <path d="M285.102,148.305 C263.453,136.683 203.982,100.306 189.376,91.638 C238.542,132.981 239.26,142.108 247.606,154.759 C252.446,159.433 254.941,162.729 259.48,167.694 C259.609,167.694 244.848,137.825 285.293,148.562" fill="#000000" id="path436"/>
    <path d="M277.275,146.217 C274.473,144.524 218.458,111.461 203.786,102.268 C240.432,136.173 236.128,134.089 244.996,144.262 C245.907,145.304 256.668,162.454 256.863,162.454 C256.992,162.454 247.802,140.286 277.142,146.217" fill="#FFFFFF" id="path440"/>
    <path d="M268.862,159.976 C252.562,148.305 215.981,118.7 200.657,104.093 C238.605,152.543 241.933,178.3 241.933,178.3 C241.933,178.3 243.366,167.218 243.366,167.803 C243.366,168.322 243.885,154.567 258.951,157.306 C260.122,157.501 268.664,160.24 268.664,160.24" fill="#000000" id="path442"/>
    <path d="M260.32,155.867 C244.345,143.611 225.826,127.764 209.589,113.81 C231.105,140.805 238.995,164.67 241.672,168.65 C241.672,152.155 260.188,156.066 260.188,156.066" fill="#FFFFFF" id="path446"/>
    <path d="M253.019,170.81 C239.198,156.661 215.719,128.158 189.766,95.162 C190.13,95.162 216.897,132.653 215.521,180.192 C215.521,180.192 218.584,171.522 219.431,169.5 C219.95,168.197 222.299,154.832 240.1,163.374 C240.425,163.503 253.628,171.684 253.628,171.684" fill="#000000" id="path448"/>
    <path d="M242.714,162.911 C230.325,148.109 218.848,135.459 200.918,111.071 C200.918,111.071 216.304,140.087 217.284,170.149 C217.869,168.782 219.5,153.456 235.475,159.718 C235.866,159.846 242.516,162.911 242.516,162.911" fill="#FFFFFF" id="path452"/>
    <path d="M261.389,242.132 C255.133,241.87 254.078,240.944 253.128,240.454 C244.427,234.88 237.365,235.436 237.365,235.436 C237.45,235.406 227.725,236.282 226.286,236.636 C229.349,238.049 233.838,237.934 239.005,241.242 C244.113,244.513 250.61,244.845 253.819,244.253 C256.804,243.739 261.408,242.138 261.408,242.138" fill="#FFFFFF" id="path454"/>
    <path d="M283.226,223.318 C275.425,222.319 273.47,221.529 271.465,220.721 C267.767,219.15 258.415,217.77 248.675,221.852 C241.344,224.903 226.918,227.166 223.057,225.144 C222.587,225.994 222.299,226.437 221.736,227.579 C224.436,228.7 236.842,227.946 242.006,228.079 C242.879,228.098 243.703,228.231 244.564,228.317 C255.964,229.474 267.68,225.306 269.308,225.009 C271.066,224.688 276.305,223.685 283.219,223.315" fill="#FFFFFF" id="path456"/>
    <path d="M52.46,218.981 C44.083,218.773 44.493,216.97 36.11,218.078 C34.602,218.277 26.596,218.915 26.427,218.749 C26.262,218.624 36.914,224.433 42.998,222.517 C45.095,221.859 50.352,219.589 50.352,219.589" fill="#FFFFFF" id="path458"/>
    <path d="M111.812,237.917 C105.205,237.722 102.995,236.848 101.334,236.14 C100.412,235.747 98.225,235.088 97.245,234.87 C91.205,233.537 84.069,233.785 82.997,233.832 C81.862,233.878 70.162,233.497 64.465,231.791 C58.781,230.087 52.287,234.85 48.268,235.224 C46.445,235.419 34.797,235.27 34.602,235.27 C33.537,235.73 49.71,243.654 62.063,239.081 C64.667,238.119 69.1,237.653 72.375,237.315 C80.695,236.567 87.831,236.941 93.104,238.672 C98.989,240.607 104.785,242.79 110.079,243.816 C114.74,244.718 119.183,244.309 123.754,243.283 C129.302,242.035 136.362,241.371 138.453,241.539 C141.973,241.82 145.095,242.949 148.989,243.829 C164.31,247.296 189.835,237.206 188.827,237.348 L188.764,237.285 C176.05,236.438 173.87,235.902 168.657,235.194 C159.288,233.55 147.243,230.004 133.632,234.778 C133.113,234.96 132.631,235.135 132.095,235.257 C129.17,235.935 120.142,238.245 111.825,237.92" fill="#318EC9" id="path460"/>
    <path d="M124.098,238.099 C120.863,238.863 116.592,240.16 110.73,239.604 C104.09,238.976 96.581,235.77 93.785,237.034 C93.722,237.037 100.719,239.541 101.61,239.928 C110.601,244.104 114.299,243.009 115.339,242.909 C117.479,242.701 120.413,240.64 120.413,240.64" fill="#FFFFFF" id="path462"/>
    <path d="M74.317,235.016 C68.124,234.109 63.39,232.303 60.224,233.117 C58.927,233.451 51.768,236.253 48.668,236.412 C44.88,236.603 45.685,236.525 41.843,236.739 C44.566,239.035 58.619,240.504 67.33,236.742 C69.013,236.018 74.056,235.082 74.056,235.082" fill="#FFFFFF" id="path464"/>
    <path d="M178.548,239.164 C172.26,239.181 168.104,238.115 164.518,237.018 C157.531,234.933 147.507,232.204 138.922,236.428 C137.785,236.987 133.179,239.882 130.788,240.584 C131.082,240.968 140.656,239.505 143.236,239.882 C145.817,240.256 147.788,241.249 150.488,241.953 C160.823,244.652 179.097,238.757 178.591,239.217" fill="#FFFFFF" id="path466"/>
    <path d="M231.618,230.447 C221.555,231.582 216.265,231.592 205.222,227.926 C197.346,225.601 190.51,220.509 174.936,226.203 C159.612,232.329 144.94,226.656 144.94,226.656 C144.94,226.656 136.531,222.223 117.75,227.503 C102.115,231.549 87.388,226.557 87.298,226.527 C86.034,226.083 83.431,225.154 81.932,224.327 C61.047,212.817 46.339,224.486 37.926,225.928 C40.983,226.193 43.623,229.23 55.311,231.625 C55.311,231.625 61.143,229.299 66.334,231.337 C66.519,231.409 67.177,231.605 67.786,231.708 C71.075,232.254 79.521,232.971 81.35,233.001 C81.803,233.008 93.101,232.445 98.523,234.311 C99.154,234.526 100.487,234.92 101.117,235.148 C111.084,238.777 125.769,236.23 135.019,233.491 C139.651,232.121 144.057,229.673 163.033,233.196 C182.045,236.683 205.702,238.152 225.088,233.842 C225.845,233.676 227.44,233.434 228.214,233.345 C229.66,233.179 231.333,233.047 233.818,232.898 C239.274,232.571 248.03,232.7 254.399,236.928 C263.625,243.054 274.955,239.949 278.681,238.632 C279.405,238.377 280.05,238.069 280.741,237.742 C287.589,234.507 294.083,235.231 301.292,234.89 C300.643,234.543 298.424,233.415 296.799,233.12 C291.959,232.247 286.739,232.313 280.576,232.704 C269.622,233.418 263.426,231.817 261.584,231.615 C252.701,229.977 249.138,230.404 244.642,230.281 C243.474,230.252 242.32,230.203 241.149,230.186 C240.322,230.176 239.098,230.149 237.53,230.142 C235.512,230.137 233.613,230.229 231.612,230.454" fill="#318EC9" id="path468"/>
    <path d="M144.993,229.207 C142.472,227.956 141.245,227.503 140.484,227.275 C139.875,227.093 139.269,226.881 138.661,226.699 C134.139,225.342 126.765,227.112 126.765,227.112 C126.765,227.112 114.369,230.646 108.236,230.411 C104.713,230.275 99.413,229.991 97.947,230.067 C104.196,233.649 105.245,234.347 108.1,235.227 C117.151,238.016 132.667,231.006 132.667,231.006 C132.667,231.006 136.838,228.654 144.92,229.323" fill="#FFFFFF" id="path470"/>
    <path d="M291.322,233.683 C285.168,233.21 272.72,234.989 267.512,233.511 C257.69,230.791 248.755,232.624 247.101,232.922 C247.101,232.922 250.892,232.747 255.815,235.856 C258.077,237.289 261.991,238.301 262.745,238.446 C275.16,240.868 281.43,235.459 290.779,233.683" fill="#FFFFFF" id="path472"/>
    <path d="M217.357,232.19 C210.938,231.675 206.965,230.725 203.425,229.484 C196.532,227.126 186.626,223.997 177.883,227.874 C176.725,228.386 171.991,231.182 169.589,231.697 C169.867,232.091 179.488,231.013 182.055,231.492 C184.618,231.969 186.544,233.037 189.217,233.851 C199.433,236.961 217.923,231.8 217.396,232.24" fill="#FFFFFF" id="path474"/>
    <path d="M94.689,230.606 C85.131,228.188 83.368,227.992 79.583,226.286 C72.206,223.02 61.58,218.62 51.563,222.058 C50.237,222.511 44.715,225.531 42.049,225.481 C42.316,225.944 53.031,225.677 55.817,226.451 C58.6,227.222 60.621,228.588 63.489,229.743 C74.459,234.153 95.347,230.232 94.725,230.669" fill="#FFFFFF" id="path476"/>
    <g>
      <path d="M146.699,25.239 C145.201,25.773 143.695,26.757 143.22,28.716 L144.183,36.379 C145.26,35.054 147.493,32.807 150.596,32.377 L149.246,24.723 C148.717,24.761 147.726,24.878 146.699,25.239 z" fill="#318EC9"/>
      <path d="M146.699,25.239 C145.201,25.773 143.695,26.757 143.22,28.716 L144.183,36.379 C145.26,35.054 147.493,32.807 150.596,32.377 L149.246,24.723 C148.717,24.761 147.726,24.878 146.699,25.239 z" fill-opacity="0" stroke="#000000" stroke-width="1"/>
    </g>
    <g>
      <path d="M150.596,32.34 C150.596,32.34 149.656,32.321 147.552,33.549 C145.859,34.538 144.209,35.761 144.179,36.859 C144.061,41.165 146.124,43.137 149.986,43.538 C154.11,43.965 156.817,42.556 158.262,41.802 C161.332,40.2 163.402,37.371 163.402,37.371 L160.358,32.467 C159.246,33.978 158.969,37.015 156.377,37.951 C149.661,40.375 150.596,32.34 150.596,32.34 z" fill="#318EC9"/>
      <path d="M150.596,32.34 C150.596,32.34 149.656,32.321 147.552,33.549 C145.859,34.538 144.209,35.761 144.179,36.859 C144.061,41.165 146.124,43.137 149.986,43.538 C154.11,43.965 156.817,42.556 158.262,41.802 C161.332,40.2 163.402,37.371 163.402,37.371 L160.358,32.467 C159.246,33.978 158.969,37.015 156.377,37.951 C149.661,40.375 150.596,32.34 150.596,32.34 z" fill-opacity="0" stroke="#000000" stroke-width="1"/>
    </g>
    <g>
      <path d="M163.432,37.371 L160.629,32.833 C159.775,29.323 161.11,29.19 162.311,28.522 C163.16,28.05 166,27.399 167.57,27.054 C179.718,24.384 180.519,25.051 180.652,25.09 C181.74,25.407 181.987,28.161 182.121,28.161 C182.254,28.161 193.547,23.85 193.681,23.717 C193.814,23.583 195.683,23.049 196.404,23.488 C199.613,25.444 202.411,24.957 203.212,24.957 C204.013,24.957 208.654,24.123 211.755,23.45 C235.116,18.377 231.111,18.243 250.2,15.44 C250.676,15.37 255.272,15.574 255.272,15.574 C255.272,15.574 246.462,17.481 245.127,17.615 C243.792,17.748 239.254,19.178 237.785,19.445 C236.317,19.712 226.172,22.154 222.968,23.488 C219.764,24.823 212.096,28.426 208.685,29.228 C201.476,30.925 201.419,31.211 198.94,30.658 C195.95,29.99 196.83,28.651 195.736,28.522 C193.467,28.255 191.865,29.056 191.198,29.457 C184.123,32.927 180.652,36.131 180.652,34.131 C180.652,30.255 180.519,29.99 177.582,31.097 C174.497,32.26 172.242,33.367 170.641,34.168 C169.039,34.968 167.971,35.369 166.769,36.036 C165.568,36.704 163.432,37.371 163.432,37.371 z" fill="#318EC9"/>
      <path d="M163.432,37.371 L160.629,32.833 C159.775,29.323 161.11,29.19 162.311,28.522 C163.16,28.05 166,27.399 167.57,27.054 C179.718,24.384 180.519,25.051 180.652,25.09 C181.74,25.407 181.987,28.161 182.121,28.161 C182.254,28.161 193.547,23.85 193.681,23.717 C193.814,23.583 195.683,23.049 196.404,23.488 C199.613,25.444 202.411,24.957 203.212,24.957 C204.013,24.957 208.654,24.123 211.755,23.45 C235.116,18.377 231.111,18.243 250.2,15.44 C250.676,15.37 255.272,15.574 255.272,15.574 C255.272,15.574 246.462,17.481 245.127,17.615 C243.792,17.748 239.254,19.178 237.785,19.445 C236.317,19.712 226.172,22.154 222.968,23.488 C219.764,24.823 212.096,28.426 208.685,29.228 C201.476,30.925 201.419,31.211 198.94,30.658 C195.95,29.99 196.83,28.651 195.736,28.522 C193.467,28.255 191.865,29.056 191.198,29.457 C184.123,32.927 180.652,36.131 180.652,34.131 C180.652,30.255 180.519,29.99 177.582,31.097 C174.497,32.26 172.242,33.367 170.641,34.168 C169.039,34.968 167.971,35.369 166.769,36.036 C165.568,36.704 163.432,37.371 163.432,37.371 z" fill-opacity="0" stroke="#000000" stroke-width="1"/>
    </g>
    <g>
      <path d="M133.86,23.286 C133.602,23.742 134.406,24.514 134.406,24.514 L142.363,32.751 L142.786,36.109 L137.174,41.586 C126.352,33.175 128.286,31.078 128.286,31.078 L133.86,23.286 z" fill="#318EC9"/>
      <path d="M133.86,23.286 C133.602,23.742 134.406,24.514 134.406,24.514 L142.363,32.751 L142.786,36.109 L137.174,41.586 C126.352,33.175 128.286,31.078 128.286,31.078 L133.86,23.286 z" fill-opacity="0" stroke="#000000" stroke-width="1"/>
    </g>
  </g>
</svg>
