<?xml version="1.0" encoding="utf-8"?>
<!-- Generator: Adobe Illustrator 14.0.0, SVG Export Plug-In . SVG Version: 6.00 Build 43363)  -->
<!DOCTYPE svg PUBLIC "-//W3C//DTD SVG 1.1//EN" "http://www.w3.org/Graphics/SVG/1.1/DTD/svg11.dtd">
<svg version="1.1" xmlns="http://www.w3.org/2000/svg" xmlns:xlink="http://www.w3.org/1999/xlink" x="0px" y="0px"
	 width="841.89px" height="595.28px" viewBox="0 0 841.89 595.28" enable-background="new 0 0 841.89 595.28" xml:space="preserve">
<g id="Logo_Text">
	<g>
		<path fill="#620F44" d="M391.486,367.139c0,22.009-13.99,33.015-41.966,33.015c-11.239,0-21.2-1.449-29.89-4.348v-13.028
			c8.863,2.895,18.884,4.344,30.064,4.344c17.145,0,25.717-6.662,25.717-19.982v-4.348c-6.835,2.898-14.193,4.348-22.069,4.348
			c-28.845,0-43.269-15.38-43.269-46.137c0-30.063,15.206-45.097,45.615-45.097c12.338,0,24.27,1.248,35.797,3.737V367.139z
			 M375.412,291.372c-5.503-1.389-12.309-2.083-20.417-2.083c-19.407,0-29.108,10.513-29.108,31.538
			c0,21.606,9.179,32.407,27.543,32.407c8.341,0,15.667-1.563,21.982-4.692V291.372z"/>
		<path fill="#620F44" d="M446.275,275.905c25.947,0,38.926,12.833,38.926,38.492c0,3.646-0.262,7.562-0.782,11.73h-64.036
			c0,18.651,10.889,27.977,32.669,27.977c10.368,0,19.58-1.157,27.631-3.476v13.035c-8.051,2.315-17.843,3.476-29.365,3.476
			c-31.34,0-47.007-15.555-47.007-46.66C404.31,290.765,418.298,275.905,446.275,275.905z M420.383,312.746h49.351
			c-0.349-15.987-8.165-23.98-23.458-23.98C430.057,288.766,421.426,296.759,420.383,312.746z"/>
		<path fill="#620F44" d="M494.664,321.521c0-30.408,14.478-45.617,43.439-45.617s43.44,15.208,43.44,45.617
			c0,30.354-14.479,45.53-43.44,45.53C509.259,367.052,494.777,351.876,494.664,321.521z M538.104,354.104
			c18.248,0,27.369-10.976,27.369-32.928c0-21.488-9.121-32.235-27.369-32.235c-18.245,0-27.369,10.747-27.369,32.235
			C510.734,343.128,519.858,354.104,538.104,354.104z"/>
		<path fill="#620F44" d="M672.328,367.139c0,22.009-13.988,33.015-41.964,33.015c-11.237,0-21.2-1.449-29.888-4.348v-13.028
			c8.862,2.895,18.878,4.344,30.063,4.344c17.141,0,25.715-6.662,25.715-19.982v-4.348c-6.837,2.898-14.189,4.348-22.069,4.348
			c-28.845,0-43.269-15.38-43.269-46.137c0-30.063,15.206-45.097,45.617-45.097c12.334,0,24.27,1.248,35.795,3.737V367.139z
			 M656.254,291.372c-5.502-1.389-12.308-2.083-20.419-2.083c-19.405,0-29.106,10.513-29.106,31.538
			c0,21.606,9.182,32.407,27.544,32.407c8.342,0,15.668-1.563,21.981-4.692V291.372z"/>
		<path fill="#620F44" d="M727.12,275.905c25.949,0,38.921,12.833,38.921,38.492c0,3.646-0.258,7.562-0.781,11.73h-64.033
			c0,18.651,10.889,27.977,32.669,27.977c10.365,0,19.577-1.157,27.631-3.476v13.035c-8.054,2.315-17.843,3.476-29.368,3.476
			c-31.337,0-47.006-15.555-47.006-46.66C685.152,290.765,699.141,275.905,727.12,275.905z M701.227,312.746h49.351
			c-0.346-15.987-8.168-23.98-23.457-23.98C710.897,288.766,702.27,296.759,701.227,312.746z"/>
		<path fill="#620F44" d="M778.781,367.139v-91.234h10.858l2.871,11.646c7.991-7.762,17.604-11.646,28.842-11.646v13.384
			c-10.889,0-19.724,3.851-26.5,11.553v66.297H778.781z"/>
	</g>
</g>
<g id="Purple">
	<path fill="#620F44" d="M301.446,269.706c-0.689-9.755-0.919-10.889-3.717-24.742c-1.309-5.432-3.705-12.288-5.715-17.874
		c4.471,13.728-1.232,31.929-18.414,52.157c-3.736,4.398-7.882,8.728-12.368,12.964v0.03v0.125l-16.338,15.675
		c-0.548-0.284-1.142-0.484-1.762-0.611c-0.437-0.089-0.885-0.146-1.349-0.146c-2.538,0-4.749,1.392-5.914,3.455l-8.014-2.171
		c-0.328-1.007-0.887-1.907-1.61-2.646c-1.232-1.257-2.946-2.039-4.847-2.039c-3.752,0-6.796,3.042-6.796,6.796
		c0,0.825,0.153,1.613,0.423,2.344c0.298,0.805,0.741,1.539,1.301,2.168l-3.396,11.937l-3.338,11.735
		c-2.04,0.191-3.813,1.285-4.926,2.875l-8.669-2.429c-0.218-0.994-0.671-1.892-1.271-2.67c-1.241-1.609-3.17-2.66-5.36-2.66
		c-3.753,0-6.796,3.039-6.796,6.793c0,0.107,0.012,0.211,0.017,0.318l-10.315,5.308c-26.405,10.273-53.599,16.683-77.734,17.402
		c-30.541,0.912-50.367-7.454-57.697-21.703c4.244,8.107,4.738,8.815,12.997,20.666c6.07,7.816,7.086,8.826,16.822,18.49
		c7.613,6.8,9.008,7.752,19.869,15.199c9.441,5.723,11.469,6.621,22.719,11.606c12.158,4.475,15.048,5.129,25.791,7.563
		c13.242,2.237,17.639,2.463,30.693,2.445c5.493-0.185,6.196-0.261,14.813-1.224c4.302-0.594,4.595-0.654,12.148-2.211
		c3.608-0.822,3.737-0.858,10.441-2.808c3.191-0.996,3.307-1.04,9.391-3.298c3.113-1.228,3.113-1.228,8.807-3.797
		c3.205-1.529,3.205-1.529,8.579-4.418c2.977-1.667,2.977-1.667,8.658-5.256c3.138-2.07,3.138-2.07,9.057-6.494
		c3.519-2.754,3.519-2.754,9.79-8.394c4.169-3.954,4.419-4.233,10.842-11.404c8.624-10.466,11.546-15.538,16.851-24.743
		c5.548-11.036,6.36-13.363,10.265-24.524c3.014-10.312,3.275-11.965,5.313-24.826C301.758,284.687,301.726,283.271,301.446,269.706
		z M261.233,364.918h-88.999v-12.327l13.096-6.363c1.128,0.838,2.521,1.338,4.035,1.338c2.157,0,4.076-1.01,5.32-2.579l9.028,2.532
		c0.82,2.828,3.427,4.9,6.521,4.9c3.754,0,6.796-3.042,6.796-6.796c0-1.854-0.747-3.535-1.953-4.763l5.115-17.981l1.542-5.423
		c2.241-0.11,4.193-1.298,5.349-3.063l4.522,1.223l3.898,1.055c1.02,2.466,3.445,4.196,6.278,4.196c3.755,0,6.796-3.039,6.796-6.792
		c0-0.47-0.049-0.93-0.138-1.372l12.791-12.264V364.918z"/>
</g>
<g id="White_1">
	<path fill="#FFFFFF" d="M248.442,312.703c0.089,0.442,0.138,0.902,0.138,1.372c0,3.753-3.041,6.792-6.796,6.792
		c-2.833,0-5.258-1.73-6.278-4.196l-3.898-1.055l-4.522-1.223c-1.156,1.765-3.108,2.952-5.349,3.063l-1.542,5.423l-5.115,17.981
		c1.206,1.228,1.953,2.908,1.953,4.763c0,3.754-3.042,6.796-6.796,6.796c-3.094,0-5.701-2.072-6.521-4.9l-9.028-2.532
		c-1.245,1.569-3.164,2.579-5.32,2.579c-1.515,0-2.907-0.5-4.035-1.338l-13.096,6.363v12.327h88.999v-64.479L248.442,312.703z"/>
	<path fill="#FFFFFF" d="M292.015,227.089c-0.231-0.644-0.461-1.282-0.681-1.887l-2.489-5.75l-2.705-5.495
		c6.438,14.017,1.223,33.414-17.239,55.151c-2.715,3.196-5.65,6.355-8.77,9.47h-87.897v55.816
		c-27.828,11.341-56.792,18.471-82.328,19.232c-32.27,0.963-52.573-8.433-58.804-24.186l2.998,7.018l2.74,5.636
		c7.33,14.249,27.156,22.615,57.697,21.703c24.135-0.72,51.329-7.129,77.734-17.402l10.315-5.308
		c-0.005-0.107-0.017-0.211-0.017-0.318c0-3.754,3.042-6.793,6.796-6.793c2.19,0,4.119,1.051,5.36,2.66
		c0.601,0.778,1.053,1.676,1.271,2.67l8.669,2.429c1.114-1.59,2.887-2.684,4.926-2.875l3.338-11.735l3.396-11.937
		c-0.56-0.629-1.002-1.363-1.301-2.168c-0.271-0.73-0.423-1.519-0.423-2.344c0-3.754,3.044-6.796,6.796-6.796
		c1.901,0,3.615,0.782,4.847,2.039c0.724,0.739,1.282,1.64,1.61,2.646l8.014,2.171c1.166-2.063,3.376-3.455,5.914-3.455
		c0.464,0,0.912,0.058,1.349,0.146c0.621,0.127,1.214,0.327,1.762,0.611l16.338-15.675v-0.125v-0.03
		c4.486-4.236,8.631-8.565,12.368-12.964C290.783,259.019,296.486,240.817,292.015,227.089z"/>
</g>
<g id="Green_1">
	<path fill="#41621F" d="M89.907,353.627c25.536-0.762,54.5-7.892,82.328-19.232v-55.816h87.897c3.119-3.114,6.055-6.273,8.77-9.47
		c18.462-21.737,23.677-41.134,17.239-55.151l-0.665-1.351c-2.608-4.683-6.405-10.745-9.302-15.253
		c-5.761-8.024-6.746-9.074-16.155-19.137c-5.328-5.411-9.056-8.295-17.08-14.292c15.288,12.186,13.83,33.791-7.506,58.906
		c-33.937,39.955-105.301,73.65-159.391,75.267c-37,1.104-56.334-13.089-53.998-34.957c-0.917,9.664-0.881,10.791-0.443,24.591
		c0.795,9.741,1.035,10.875,3.99,24.716c1.449,5.159,3.74,11.935,5.513,16.993C37.334,345.194,57.637,354.59,89.907,353.627z"/>
</g>
<g id="White_2">
	<g>
		<path fill="#FFFFFF" d="M31.522,225.549c0.289-0.808,0.604-1.624,0.953-2.449C32.165,223.876,31.846,224.699,31.522,225.549z"/>
		<path fill="#FFFFFF" d="M206.374,145.226c-0.893-0.314-1.76-0.619-2.577-0.907C204.686,144.602,205.542,144.906,206.374,145.226z"
			/>
		<path fill="#FFFFFF" d="M242.938,163.924c-0.602-0.45-1.222-0.913-1.874-1.4l-0.305-0.208c-9.022-5.954-10.768-6.81-22.134-12.378
			c-3.477-1.579-8.011-3.217-12.013-4.628c-0.08-0.028-0.159-0.056-0.238-0.084c21.728,8.354,24.122,29.354,2.708,54.563
			c-28.55,33.608-88.578,61.953-134.081,63.315c-35.51,1.056-51.66-14.639-43.479-37.555c-0.032,0.083-0.063,0.165-0.095,0.248
			c-1.505,3.966-3.098,8.514-4.319,12.132c-2.881,10.288-3.126,11.942-5.025,24.843l-0.04,0.369
			c-2.336,21.868,16.999,36.06,53.998,34.957c54.09-1.617,125.455-35.313,159.391-75.267
			C256.769,197.715,258.227,176.11,242.938,163.924z"/>
	</g>
</g>
<g id="Green_2">
	<path fill="#548829" d="M75.001,263.104c45.503-1.362,105.531-29.707,134.081-63.315c21.415-25.209,19.021-46.209-2.708-54.563
		c-0.893-0.314-1.76-0.619-2.577-0.907c-0.142-0.045-0.275-0.096-0.418-0.14c-2.925-0.909-6.892-1.892-9.85-2.694
		c-13.365-2.982-21.957-3.543-31.987-3.631c30.453,0.832,38.901,19.792,18.455,43.861c-21.443,25.246-66.537,46.54-100.717,47.559
		c-34.137,1.019-44.473-18.573-23.132-43.773l-1.461,1.645c-8.965,11-11.373,15.062-17.639,26.242
		c-1.407,2.721-3.069,6.458-4.376,9.228c-0.071,0.163-0.128,0.322-0.197,0.484c-0.31,0.776-0.629,1.599-0.953,2.449
		C23.341,248.465,39.491,264.16,75.001,263.104z"/>
</g>
<g id="White_3">
	<path fill="#FFFFFF" d="M161.542,137.854c-1.23-0.034-2.491-0.041-3.792-0.014c-0.273,0.006-0.534,0.001-0.81,0.009
		c-0.179,0.007-0.36,0.014-0.543,0.017c-4.845,0.178-5.191,0.218-13.998,1.201c-4.305,0.594-4.601,0.654-12.146,2.207
		c-3.621,0.832-3.749,0.869-10.439,2.814c-3.193,0.993-3.309,1.037-9.394,3.294c-3.111,1.228-3.111,1.228-8.807,3.797
		c-2.992,1.419-2.992,1.419-8.577,4.418c-2.902,1.617-3.011,1.687-8.66,5.26c-3.141,2.069-3.141,2.069-9.055,6.491
		c-3.519,2.754-3.519,2.754-9.792,8.393c-2.077,1.985-4.74,4.74-6.748,6.796c-0.886,0.949-1.739,1.909-2.558,2.872
		c-0.026,0.031-0.049,0.062-0.076,0.093c-21.341,25.2-11.004,44.792,23.132,43.773c34.18-1.02,79.274-22.313,100.717-47.559
		C200.443,157.646,191.995,138.686,161.542,137.854z M143.16,167.754c-11.044,13.002-34.271,23.968-51.875,24.494
		c-17.604,0.523-22.921-9.594-11.876-22.595c11.046-13.002,34.271-23.971,51.875-24.494
		C148.889,144.632,154.205,154.749,143.16,167.754z"/>
</g>
<g id="Green_3">
	<path fill="#75A120" d="M79.409,169.653c-11.044,13.001-5.728,23.119,11.876,22.595c17.604-0.526,40.831-11.492,51.875-24.494
		c11.044-13.005,5.729-23.122-11.876-22.595c-2.145,1.184-4.271,2.516-6.367,3.992c12.918-0.386,16.817,7.038,8.715,16.581
		c-8.106,9.543-25.148,17.587-38.068,17.977c-12.918,0.382-16.819-7.038-8.715-16.584c8.106-9.54,25.148-17.587,38.068-17.973
		c2.096-1.476,4.222-2.808,6.367-3.992C113.68,145.682,90.455,156.651,79.409,169.653z"/>
</g>
<g id="White_4">
	<path fill="#FFFFFF" d="M86.849,167.124c-8.104,9.546-4.203,16.967,8.715,16.584c12.919-0.389,29.962-8.433,38.068-17.977
		c8.103-9.543,4.203-16.967-8.715-16.581c-5.508,3.877-10.827,8.769-15.862,14.699c5.035-5.931,10.354-10.822,15.862-14.699
		C111.997,149.536,94.955,157.583,86.849,167.124z"/>
</g>
</svg>
