<?xml version="1.0" encoding="UTF-8" standalone="no"?>
<!-- Created with Inkscape (http://www.inkscape.org/) -->

<svg
   xmlns:dc="http://purl.org/dc/elements/1.1/"
   xmlns:cc="http://creativecommons.org/ns#"
   xmlns:rdf="http://www.w3.org/1999/02/22-rdf-syntax-ns#"
   xmlns:svg="http://www.w3.org/2000/svg"
   xmlns="http://www.w3.org/2000/svg"
   xmlns:sodipodi="http://sodipodi.sourceforge.net/DTD/sodipodi-0.dtd"
   xmlns:inkscape="http://www.inkscape.org/namespaces/inkscape"
   width="48mm"
   height="57mm"
   viewBox="0 0 170.07875 201.9685"
   id="svg3376"
   version="1.1"
   inkscape:version="0.91 r13725"
   sodipodi:docname="Trilobot_Logo_Only_FlatGrey2tone.svg">
  <defs
     id="defs3378" />
  <sodipodi:namedview
     id="base"
     pagecolor="#ffffff"
     bordercolor="#666666"
     borderopacity="1.0"
     inkscape:pageopacity="0.0"
     inkscape:pageshadow="2"
     inkscape:zoom="1.4894737"
     inkscape:cx="-15.93892"
     inkscape:cy="61.428571"
     inkscape:document-units="px"
     inkscape:current-layer="layer1"
     showgrid="false"
     inkscape:window-width="1440"
     inkscape:window-height="768"
     inkscape:window-x="337"
     inkscape:window-y="58"
     inkscape:window-maximized="0"
     showguides="true"
     inkscape:guide-bbox="true" />
  <metadata
     id="metadata3381">
    <rdf:RDF>
      <cc:Work
         rdf:about="">
        <dc:format>image/svg+xml</dc:format>
        <dc:type
           rdf:resource="http://purl.org/dc/dcmitype/StillImage" />
        <dc:title></dc:title>
      </cc:Work>
    </rdf:RDF>
  </metadata>
  <g
     inkscape:label="Layer 1"
     inkscape:groupmode="layer"
     id="layer1"
     transform="translate(0,-850.3937)">
    <g
       id="g20"
       transform="translate(-3.4429578,845.9438)"
       inkscape:export-xdpi="300.14999"
       inkscape:export-ydpi="300.14999">
      <path
         d="m 89.795,6.858 c 0,0 72.946,-3.717 81.471,90.498 0,0 -29.434,-41.354 -80.638,-45.705 L 88.672,51.62 C 38.139,54.964 6.049,96.082 6.049,96.082 16.146,2.013 89.402,6.858 89.402,6.858 l 0.393,0 z"
         id="path22"
         inkscape:connector-curvature="0"
         style="fill:#92989c" />
      <path
         d="m 89.674,9.757 c 0,0 61.418,-2.333 68.736,59.414 0,0 -24.85,-27.141 -67.966,-30.066 L 88.798,39.079 C 46.26,41.208 19.297,68.097 19.297,68.097 27.659,6.475 89.344,9.757 89.344,9.757 l 0.33,0 z"
         id="path24"
         inkscape:connector-curvature="0"
         style="fill:#c9ced1" />
      <path
         d="m 88.909,61.879 c 0,0 55.703,-2.873 62.225,69.182 0,0 -22.521,-31.624 -61.674,-34.953 l -1.5,-0.021 C 49.312,98.64 24.776,130.085 24.776,130.085 32.504,58.151 88.437,61.879 88.437,61.879 l 0.472,0 z"
         id="path26"
         inkscape:connector-curvature="0"
         style="fill:#92989c" />
      <path
         d="m 88.568,64.385 c 0,0 30.282,0.817 40.725,22.16 0,0 -14.774,-10.154 -40.165,-11.114 l -0.97,0 C 63.131,76.38 47.403,86.603 47.403,86.603 57.689,63.83 88.274,64.385 88.274,64.385 l 0.294,0 z"
         id="path28"
         inkscape:connector-curvature="0"
         style="fill:#c9ced1" />
      <path
         d="m 88.579,202.649 c 4.529,-9.316 9.783,-15.021 15.906,-20.63 2.998,-2.731 5.955,-5.531 8.775,-8.425 14.029,-14.381 19.85,-30.916 9.878,-49.422 -6.491,-12.048 -19.849,-20.583 -34.644,-19.881 -14.407,0.157 -26.968,7.749 -33.469,19.802 -9.972,18.507 -4.157,35.042 9.877,49.428 2.826,2.894 5.788,5.693 8.776,8.436 6.13,5.598 10.371,11.376 14.901,20.692"
         id="path30"
         inkscape:connector-curvature="0"
         style="fill:#92989c" />
      <path
         d="m 89.365,178.417 c 3.324,-6.842 7.182,-11.046 11.691,-15.162 2.191,-2.013 4.362,-4.058 6.448,-6.181 10.307,-10.574 14.574,-22.727 7.256,-36.326 -4.771,-8.85 -14.585,-15.12 -25.469,-14.601 -10.58,0.115 -19.817,5.698 -24.583,14.554 -7.334,13.583 -3.057,25.735 7.256,36.315 2.076,2.128 4.241,4.179 6.443,6.196 4.51,4.102 7.624,8.364 10.958,15.205"
         id="path32"
         inkscape:connector-curvature="0"
         style="fill:#c9ced1" />
      <path
         d="m 43.885,36.206 c -4.836,6.416 -12.438,9.11 -16.973,5.979 -4.521,-3.14 -5.374,-11.822 -0.544,-18.258 4.836,-6.429 13.533,-8.186 18.061,-5.047 4.528,3.132 4.292,10.892 -0.544,17.326"
         id="path34"
         inkscape:connector-curvature="0"
         style="fill:#92989c" />
      <path
         d="m 26.532,40.159 c -2.49,-4.26 -3.225,-9.877 0.97,-15.538 4.22,-5.636 11.803,-7.183 15.505,-4.679 C 41.42,19.266 21.236,22.157 26,40.159"
         id="path36"
         inkscape:connector-curvature="0"
         style="fill:#c9ced1" />
      <path
         d="m 133.548,36.107 c 4.837,6.416 12.425,9.11 16.96,5.979 4.535,-3.14 5.387,-11.822 0.551,-18.258 -4.836,-6.429 -13.526,-8.186 -18.061,-5.047 -4.535,3.133 -4.286,10.892 0.55,17.326"
         id="path38"
         inkscape:connector-curvature="0"
         style="fill:#92989c" />
      <path
         d="m 150.469,40.25 c 2.49,-4.26 3.225,-9.862 -0.982,-15.525 -4.209,-5.654 -11.783,-7.182 -15.506,-4.685 1.6,-0.675 21.769,2.215 16.488,20.21"
         id="path40"
         inkscape:connector-curvature="0"
         style="fill:#c9ced1" />
    </g>
    <rect
       style="fill:none;fill-opacity:0.90980392"
       id="rect3454"
       width="209.46997"
       height="209.46997"
       x="-258.48062"
       y="873.77563"
       inkscape:transform-center-x="260.49471"
       inkscape:transform-center-y="12.084804" />
  </g>
</svg>
