<?xml version="1.0" encoding="UTF-8"?>
<!DOCTYPE svg PUBLIC "-//W3C//DTD SVG 1.1//EN" "http://www.w3.org/Graphics/SVG/1.1/DTD/svg11.dtd">
<!-- Creator: CorelDRAW X7 -->
<svg xmlns="http://www.w3.org/2000/svg" xml:space="preserve" width="6425px" height="1739px" version="1.1" style="shape-rendering:geometricPrecision; text-rendering:geometricPrecision; image-rendering:optimizeQuality; fill-rule:evenodd; clip-rule:evenodd"
viewBox="0 0 642500000 173852941"
 xmlns:xlink="http://www.w3.org/1999/xlink">
 <defs>
  <style type="text/css">
   <![CDATA[
    .fil2 {fill:#2B2A29}
    .fil1 {fill:#16A84B}
    .fil0 {fill:#1F1F1F}
   ]]>
  </style>
 </defs>
 <g id="Layer_x0020_1">
  <metadata id="CorelCorpID_0Corel-Layer"/>
  <g id="_2312622564144">
   <path class="fil0" d="M35520348 43180800l58327133 0c7291430,0 14581462,3645696 14581462,14581424l0 54682835c0,10937088 -7291431,18227120 -14581462,18227120l-58327133 0c-7291392,0 -14581424,-7291392 -14581424,-18227120l0 -54682835c0,-10937126 7291392,-14581424 14581424,-14581424z"/>
   <polygon class="fil1" points="43322679,15934756 23603031,15934756 23603031,35654441 63042365,71151017 43322679,67206785 19658799,90870703 59098133,98759166 27545751,94814934 86706244,157918185 102481698,153973953 102481698,138198500 63042365,98759166 106425930,106646156 106425930,79038007 "/>
   <path class="fil2" d="M129099453 113800469l0 -55852865 34153183 32837684c927128,927127 1866765,1916880 2831460,2969295 952185,1052415 1954485,2242627 3006900,3558127l0 -37260276 8043419 0 0 55852865 -34817226 -33451573c-927089,-914580 -1829159,-1866765 -2693662,-2869065 -877013,-1002300 -1691362,-2054715 -2480655,-3157245l0 37373053 -8043419 0zm74328595 -21123359l14984309 0 -5512650 -12253042c-343586,-763819 -651722,-1679117 -989752,-2693662 -337993,-1014583 -689063,-2142435 -1027358,-3395272 -288180,1177702 -607276,2266097 -939637,3282532 -331152,1012731 -626475,1970963 -1002300,2806402l-5512612 12253042zm24155316 21123359l-6088972 -13831664 -21298724 0 -6239318 13831664 -9171007 0 26022082 -55852865 25997024 55852865 -9221085 0zm13341362 -53748035l8644762 0 0 31259742c0,4833829 1119310,8480168 3357705,10912484 2244630,2439157 5587784,3658357 10047981,3658357 4422630,0 7752935,-1218973 9997867,-3658357 2238735,-2432656 3357743,-6076425 3357743,-10912484l0 -31259742 8719935 0 0 32061582c0,7265012 -1829992,12717418 -5500103,16324866 -3670073,3607449 -9208574,5412383 -16600499,5412383 -7391887,0 -12905633,-1805236 -16550384,-5399873 -3644752,-3594598 -5475007,-9045719 -5475007,-16337376l0 -32061582zm75290909 7442040l0 46305995 -8719973 0 0 -46305995 -14282699 0 0 -7442040 37210198 0 0 7442040 -14207526 0zm141782364 -7442040l8644762 0 0 31183209c0,4832960 1119727,8633688 3357667,11065550 2244215,2438703 5587823,3658357 10048020,3658357 4422630,0 7753690,-1219729 9997867,-3658357 2237941,-2431900 3357705,-6229453 3357705,-11065550l0 -31183209 8719972 0 0 31985049c0,7263500 -1830785,12871202 -5500102,16477932 -3669318,3606693 -9208575,5412383 -16600499,5412383 -7391925,0 -12906087,-1805690 -16550385,-5399873 -3644297,-3594145 -5475007,-9198748 -5475007,-16490442l0 -31985049zm54479767 53748035l0 -53748035 8719935 0 0 53748035 -8719935 0zm27863449 -7893074l7354320 0c4034219,0 7067311,-266147 9083287,-801840 2027730,-538793 3789124,-1450161 5274584,-2718720 2032115,-1735317 3557523,-3898766 4572975,-6489855 1011182,-2580242 1528508,-5587785 1528508,-9008115 0,-3432877 -517326,-6427872 -1528508,-9008114 -1015452,-2591089 -2534813,-4761605 -4572975,-6489855 -1504546,-1275740 -3332647,-2180002 -5449987,-2718720 -2117340,-538755 -5440463,-801840 -9947752,-801840l-3157245 0 -3157207 0 0 38037059zm-8719972 7893074l0 -53748035 11764402 0c7667595,0 13058207,382514 16187107,1152645 3119942,767863 5852532,2068548 8206237,3871365 3105769,2378762 5464046,5426404 7066215,9145950 1602130,3719470 2405482,7968247 2405482,12741644 0,4773435 -803352,8997116 -2405482,12679019 -1602169,3681941 -3955230,6736348 -7066215,9133440 -2348527,1809583 -5024350,3100441 -8030873,3871365 -2991706,767107 -7670542,1152607 -14007066,1152607l-2355405 0 -11764402 0zm55639857 0l0 -53748035 35580101 0 0 7442040 -26860128 0 0 15292445 26860128 0 0 7667557 -26860128 0 0 15528091 26860128 0 0 7817902 -35580101 0z"/>
   <path class="fil2" d="M381898976 86946955c0,-2589313 -478397,-5048425 -1419925,-7374086 -941489,-2325661 -2310278,-4397988 -4068839,-6216641 -1735317,-1794578 -3723060,-3177200 -5989952,-4140459 -2277020,-967529 -4677400,-1455716 -7183150,-1455716 -2517655,0 -4918035,476282 -7195092,1431868 -2266892,951316 -4287705,2348564 -6061497,4164307 -1755914,1797488 -3127350,3855227 -4056934,6180850 -929584,2325661 -1396077,4796754 -1396077,7409877 0,2589237 466493,5036482 1396077,7338257 929584,2301775 2295086,4365410 4056934,6180850 1767782,1821601 3784514,3208758 6049591,4164307 2254949,951316 4665457,1431868 7206998,1431868 2493845,0 4858434,-476281 7111568,-1431868 2243043,-951278 4275951,-2336735 6061534,-4164307 1767971,-1809507 3129391,-3878243 4068839,-6192793 943606,-2324829 1419925,-4760887 1419925,-7326314zm8662752 0c0,3639271 -678328,7078120 -2040391,10309366 -1368184,3245683 -3351166,6137236 -5966066,8674657 -2621060,2543469 -5598178,4485519 -8913327,5834807 -3304944,1345131 -6777468,2028486 -10404834,2028486 -3687042,0 -7199136,-674058 -10547998,-2040391 -3342814,-1363914 -6283687,-3312125 -8853650,-5822902 -2606358,-2546227 -4592892,-5419185 -5942218,-8638866 -1345092,-3209514 -2028448,-6658114 -2028448,-10345157 0,-3663157 683356,-7111795 2028448,-10345157 1349326,-3243567 3324220,-6152278 5942218,-8710486 2606056,-2546530 5573423,-4475655 8877536,-5799016 3304038,-1323361 6813221,-1992657 10524112,-1992657 3675100,0 7161268,667255 10464511,1992657 3292964,1321282 6262523,3249425 8853650,5799016 2621022,2579033 4602190,5510760 5966066,8758182 1366333,3253356 2040391,6682000 2040391,10297461zm44261485 -715934l13883821 0c0,346043 10128,836875 35828,1467659 67576,1657990 107373,2768230 107373,3352905 0,7195093 -2065448,12792289 -6180850,16764677 -4127495,3984105 -9939475,5978009 -17432876,5978009 -4200099,0 -7937937,-616346 -11216199,-1849493 -3282192,-1234583 -6173177,-3100365 -8626923,-5596175 -2424266,-2465764 -4277576,-5373341 -5572327,-8710486 -1292294,-3330720 -1944923,-6896746 -1944923,-10691162 0,-3865998 650173,-7437769 1968809,-10703143 1316143,-3259289 3281701,-6122609 5858655,-8626923 2504012,-2433450 5416313,-4313821 8770125,-5596213 3349844,-1280842 6944518,-1921037 10762783,-1921037 4021142,0 7637662,740916 10810553,2207441 2785578,1287532 5315894,3175197 7579459,5667681l-5139130 5649276c-1728741,-2001274 -3673891,-3489455 -5841006,-4467907 -2159631,-975126 -4581932,-1467659 -7266675,-1467659 -5548441,0 -10070734,1777911 -13578746,5333657 -3508050,3555784 -5262075,8173545 -5262075,13853245 0,5787073 1758107,10474602 5262075,14067953 3509940,3599512 8054154,5405277 13650366,5405277 4748982,0 8497327,-1110127 11216198,-3317152 2731910,-2217570 4092725,-5226246 4092725,-9056491l0 -727839 -7305300 0 0 -24642 1368260 -6991458z"/>
  </g>
 </g>
</svg>
